<mxfile host="65bd71144e">
    <diagram name="Page-1" id="lztr07gDLiP5ILuYCeim">
        <mxGraphModel dx="1234" dy="1146" grid="1" gridSize="10" guides="1" tooltips="1" connect="1" arrows="1" fold="1" page="1" pageScale="1" pageWidth="827" pageHeight="1169" math="1" shadow="0">
            <root>
                <mxCell id="0"/>
                <mxCell id="1" parent="0"/>
                <mxCell id="20" value="" style="rounded=0;whiteSpace=wrap;html=1;labelBackgroundColor=none;" parent="1" vertex="1">
                    <mxGeometry x="80" y="200" width="480" height="160" as="geometry"/>
                </mxCell>
                <mxCell id="Wu-VGYVmWwzD95YKU7cb-1" value="0" style="rounded=0;whiteSpace=wrap;html=1;verticalAlign=bottom;align=left;fillColor=#DAE8FC;fontColor=#6D8FBF;strokeColor=#6D8FBF;" parent="1" vertex="1">
                    <mxGeometry x="79" y="460" width="40" height="40" as="geometry"/>
                </mxCell>
                <mxCell id="Wu-VGYVmWwzD95YKU7cb-2" value="1" style="rounded=0;whiteSpace=wrap;html=1;align=left;verticalAlign=bottom;fillColor=#DAE8FC;fontColor=#6D8FBF;strokeColor=#6D8FBF;" parent="1" vertex="1">
                    <mxGeometry x="119" y="460" width="40" height="40" as="geometry"/>
                </mxCell>
                <mxCell id="Wu-VGYVmWwzD95YKU7cb-3" value="2" style="rounded=0;whiteSpace=wrap;html=1;verticalAlign=bottom;align=left;fillColor=#DAE8FC;fontColor=#6D8FBF;strokeColor=#6D8FBF;" parent="1" vertex="1">
                    <mxGeometry x="159" y="460" width="40" height="40" as="geometry"/>
                </mxCell>
                <mxCell id="Wu-VGYVmWwzD95YKU7cb-4" value="3" style="rounded=0;whiteSpace=wrap;html=1;verticalAlign=bottom;align=left;fillColor=#DAE8FC;fontColor=#6D8FBF;strokeColor=#6D8FBF;" parent="1" vertex="1">
                    <mxGeometry x="199" y="460" width="40" height="40" as="geometry"/>
                </mxCell>
                <mxCell id="Wu-VGYVmWwzD95YKU7cb-5" value="4" style="rounded=0;whiteSpace=wrap;html=1;verticalAlign=bottom;align=left;fillColor=#DAE8FC;fontColor=#6D8FBF;strokeColor=#6D8FBF;" parent="1" vertex="1">
                    <mxGeometry x="239" y="460" width="40" height="40" as="geometry"/>
                </mxCell>
                <mxCell id="Wu-VGYVmWwzD95YKU7cb-6" value="5" style="rounded=0;whiteSpace=wrap;html=1;verticalAlign=bottom;align=left;fillColor=#DAE8FC;fontColor=#6D8FBF;strokeColor=#6D8FBF;" parent="1" vertex="1">
                    <mxGeometry x="279" y="460" width="40" height="40" as="geometry"/>
                </mxCell>
                <mxCell id="Wu-VGYVmWwzD95YKU7cb-7" value="6" style="rounded=0;whiteSpace=wrap;html=1;verticalAlign=bottom;align=left;fillColor=#DAE8FC;fontColor=#6D8FBF;strokeColor=#6D8FBF;" parent="1" vertex="1">
                    <mxGeometry x="319" y="460" width="40" height="40" as="geometry"/>
                </mxCell>
                <mxCell id="Wu-VGYVmWwzD95YKU7cb-8" value="7" style="rounded=0;whiteSpace=wrap;html=1;verticalAlign=bottom;align=left;fillColor=#DAE8FC;fontColor=#6D8FBF;strokeColor=#6D8FBF;" parent="1" vertex="1">
                    <mxGeometry x="359" y="460" width="40" height="40" as="geometry"/>
                </mxCell>
                <mxCell id="Wu-VGYVmWwzD95YKU7cb-9" value="10" style="rounded=0;whiteSpace=wrap;html=1;verticalAlign=bottom;align=left;fillColor=#DAE8FC;fontColor=#6D8FBF;strokeColor=#6D8FBF;" parent="1" vertex="1">
                    <mxGeometry x="479" y="460" width="40" height="40" as="geometry"/>
                </mxCell>
                <mxCell id="Wu-VGYVmWwzD95YKU7cb-10" value="11" style="rounded=0;whiteSpace=wrap;html=1;verticalAlign=bottom;align=left;fillColor=#DAE8FC;fontColor=#6D8FBF;strokeColor=#6D8FBF;" parent="1" vertex="1">
                    <mxGeometry x="519" y="460" width="40" height="40" as="geometry"/>
                </mxCell>
                <mxCell id="Wu-VGYVmWwzD95YKU7cb-11" value="12" style="rounded=0;whiteSpace=wrap;html=1;verticalAlign=bottom;align=left;fillColor=#DAE8FC;fontColor=#6D8FBF;strokeColor=#6D8FBF;" parent="1" vertex="1">
                    <mxGeometry x="559" y="460" width="40" height="40" as="geometry"/>
                </mxCell>
                <mxCell id="Wu-VGYVmWwzD95YKU7cb-12" value="13" style="rounded=0;whiteSpace=wrap;html=1;verticalAlign=bottom;align=left;fillColor=#DAE8FC;fontColor=#6D8FBF;strokeColor=#6D8FBF;" parent="1" vertex="1">
                    <mxGeometry x="599" y="460" width="40" height="40" as="geometry"/>
                </mxCell>
                <mxCell id="Wu-VGYVmWwzD95YKU7cb-18" value="" style="endArrow=none;dashed=1;html=1;rounded=0;strokeColor=#000000;" parent="1" edge="1">
                    <mxGeometry width="50" height="50" relative="1" as="geometry">
                        <mxPoint x="159" y="540" as="sourcePoint"/>
                        <mxPoint x="159" y="420" as="targetPoint"/>
                    </mxGeometry>
                </mxCell>
                <mxCell id="Wu-VGYVmWwzD95YKU7cb-19" value="" style="endArrow=none;dashed=1;html=1;rounded=0;strokeColor=#000000;" parent="1" edge="1">
                    <mxGeometry width="50" height="50" relative="1" as="geometry">
                        <mxPoint x="239" y="540" as="sourcePoint"/>
                        <mxPoint x="239" y="420" as="targetPoint"/>
                    </mxGeometry>
                </mxCell>
                <mxCell id="Wu-VGYVmWwzD95YKU7cb-20" value="" style="endArrow=none;dashed=1;html=1;rounded=0;strokeColor=#000000;" parent="1" edge="1">
                    <mxGeometry width="50" height="50" relative="1" as="geometry">
                        <mxPoint x="319" y="540" as="sourcePoint"/>
                        <mxPoint x="319" y="420" as="targetPoint"/>
                    </mxGeometry>
                </mxCell>
                <mxCell id="Wu-VGYVmWwzD95YKU7cb-21" value="" style="endArrow=none;dashed=1;html=1;rounded=0;strokeColor=#000000;" parent="1" edge="1">
                    <mxGeometry width="50" height="50" relative="1" as="geometry">
                        <mxPoint x="479" y="540" as="sourcePoint"/>
                        <mxPoint x="479" y="420" as="targetPoint"/>
                    </mxGeometry>
                </mxCell>
                <mxCell id="Wu-VGYVmWwzD95YKU7cb-22" value="" style="endArrow=none;dashed=1;html=1;rounded=0;strokeColor=#000000;" parent="1" edge="1">
                    <mxGeometry width="50" height="50" relative="1" as="geometry">
                        <mxPoint x="559" y="540" as="sourcePoint"/>
                        <mxPoint x="559" y="420" as="targetPoint"/>
                    </mxGeometry>
                </mxCell>
                <mxCell id="Wu-VGYVmWwzD95YKU7cb-23" value="" style="endArrow=none;dashed=1;html=1;rounded=0;strokeColor=#000000;" parent="1" edge="1">
                    <mxGeometry width="50" height="50" relative="1" as="geometry">
                        <mxPoint x="639" y="540" as="sourcePoint"/>
                        <mxPoint x="639" y="420" as="targetPoint"/>
                    </mxGeometry>
                </mxCell>
                <mxCell id="A5hnAUH-TdoVmnZUKG4d-1" value="$$t_0$$" style="text;html=1;strokeColor=none;fillColor=none;align=center;verticalAlign=middle;whiteSpace=wrap;rounded=0;fontColor=#000000;" parent="1" vertex="1">
                    <mxGeometry x="99" y="430" width="40" height="20" as="geometry"/>
                </mxCell>
                <mxCell id="A5hnAUH-TdoVmnZUKG4d-32" value="$$t_3$$" style="text;html=1;strokeColor=none;fillColor=none;align=center;verticalAlign=middle;whiteSpace=wrap;rounded=0;fontColor=#000000;" parent="1" vertex="1">
                    <mxGeometry x="339" y="430" width="40" height="20" as="geometry"/>
                </mxCell>
                <mxCell id="A5hnAUH-TdoVmnZUKG4d-33" value="$$t_2$$" style="text;html=1;strokeColor=none;fillColor=none;align=center;verticalAlign=middle;whiteSpace=wrap;rounded=0;fontColor=#000000;" parent="1" vertex="1">
                    <mxGeometry x="259" y="430" width="40" height="20" as="geometry"/>
                </mxCell>
                <mxCell id="A5hnAUH-TdoVmnZUKG4d-34" value="$$t_1$$" style="text;html=1;strokeColor=none;fillColor=none;align=center;verticalAlign=middle;whiteSpace=wrap;rounded=0;fontColor=#000000;" parent="1" vertex="1">
                    <mxGeometry x="179" y="430" width="40" height="20" as="geometry"/>
                </mxCell>
                <mxCell id="A5hnAUH-TdoVmnZUKG4d-35" value="$$t_4$$" style="text;html=1;strokeColor=none;fillColor=none;align=center;verticalAlign=middle;whiteSpace=wrap;rounded=0;fontColor=#000000;" parent="1" vertex="1">
                    <mxGeometry x="499" y="430" width="40" height="20" as="geometry"/>
                </mxCell>
                <mxCell id="A5hnAUH-TdoVmnZUKG4d-39" value="$$t_5$$" style="text;html=1;strokeColor=none;fillColor=none;align=center;verticalAlign=middle;whiteSpace=wrap;rounded=0;fontColor=#000000;" parent="1" vertex="1">
                    <mxGeometry x="579" y="430" width="40" height="20" as="geometry"/>
                </mxCell>
                <mxCell id="2" value="$$t_0$$" style="whiteSpace=wrap;html=1;aspect=fixed;strokeColor=#6D8FBF;fillColor=#DAE8FC;fontColor=#6D8FBF;" parent="1" vertex="1">
                    <mxGeometry x="100" y="220" width="40" height="40" as="geometry"/>
                </mxCell>
                <mxCell id="3" value="0" style="whiteSpace=wrap;html=1;aspect=fixed;strokeColor=#6D8FBF;fillColor=#DAE8FC;fontColor=#6D8FBF;" parent="1" vertex="1">
                    <mxGeometry x="100" y="300" width="40" height="40" as="geometry"/>
                </mxCell>
                <mxCell id="4" value="" style="endArrow=classic;html=1;exitX=0.5;exitY=1;exitDx=0;exitDy=0;entryX=0.5;entryY=0;entryDx=0;entryDy=0;strokeColor=#6D8FBF;" parent="1" source="2" target="3" edge="1">
                    <mxGeometry width="50" height="50" relative="1" as="geometry">
                        <mxPoint x="410" y="290" as="sourcePoint"/>
                        <mxPoint x="460" y="240" as="targetPoint"/>
                    </mxGeometry>
                </mxCell>
                <mxCell id="5" value="$$t_1$$" style="whiteSpace=wrap;html=1;aspect=fixed;strokeColor=#6D8FBF;fillColor=#DAE8FC;fontColor=#6D8FBF;" parent="1" vertex="1">
                    <mxGeometry x="180" y="220" width="40" height="40" as="geometry"/>
                </mxCell>
                <mxCell id="6" value="2" style="whiteSpace=wrap;html=1;aspect=fixed;strokeColor=#6D8FBF;fillColor=#DAE8FC;fontColor=#6D8FBF;" parent="1" vertex="1">
                    <mxGeometry x="180" y="300" width="40" height="40" as="geometry"/>
                </mxCell>
                <mxCell id="7" value="" style="endArrow=classic;html=1;exitX=0.5;exitY=1;exitDx=0;exitDy=0;entryX=0.5;entryY=0;entryDx=0;entryDy=0;strokeColor=#6D8FBF;" parent="1" edge="1">
                    <mxGeometry width="50" height="50" relative="1" as="geometry">
                        <mxPoint x="200" y="260" as="sourcePoint"/>
                        <mxPoint x="200" y="300" as="targetPoint"/>
                    </mxGeometry>
                </mxCell>
                <mxCell id="8" value="$$t_2$$" style="whiteSpace=wrap;html=1;aspect=fixed;strokeColor=#6D8FBF;fillColor=#DAE8FC;fontColor=#6D8FBF;" parent="1" vertex="1">
                    <mxGeometry x="260" y="220" width="40" height="40" as="geometry"/>
                </mxCell>
                <mxCell id="9" value="4" style="whiteSpace=wrap;html=1;aspect=fixed;strokeColor=#6D8FBF;fillColor=#DAE8FC;fontColor=#6D8FBF;" parent="1" vertex="1">
                    <mxGeometry x="260" y="300" width="40" height="40" as="geometry"/>
                </mxCell>
                <mxCell id="10" value="" style="endArrow=classic;html=1;exitX=0.5;exitY=1;exitDx=0;exitDy=0;entryX=0.5;entryY=0;entryDx=0;entryDy=0;strokeColor=#6D8FBF;" parent="1" edge="1">
                    <mxGeometry width="50" height="50" relative="1" as="geometry">
                        <mxPoint x="280" y="260" as="sourcePoint"/>
                        <mxPoint x="280" y="300" as="targetPoint"/>
                    </mxGeometry>
                </mxCell>
                <mxCell id="11" value="$$t_3$$" style="whiteSpace=wrap;html=1;aspect=fixed;strokeColor=#6D8FBF;fillColor=#DAE8FC;fontColor=#6D8FBF;" parent="1" vertex="1">
                    <mxGeometry x="340" y="220" width="40" height="40" as="geometry"/>
                </mxCell>
                <mxCell id="12" value="6" style="whiteSpace=wrap;html=1;aspect=fixed;strokeColor=#6D8FBF;fillColor=#DAE8FC;fontColor=#6D8FBF;" parent="1" vertex="1">
                    <mxGeometry x="340" y="300" width="40" height="40" as="geometry"/>
                </mxCell>
                <mxCell id="13" value="" style="endArrow=classic;html=1;exitX=0.5;exitY=1;exitDx=0;exitDy=0;entryX=0.5;entryY=0;entryDx=0;entryDy=0;strokeColor=#6D8FBF;" parent="1" edge="1">
                    <mxGeometry width="50" height="50" relative="1" as="geometry">
                        <mxPoint x="360" y="260" as="sourcePoint"/>
                        <mxPoint x="360" y="300" as="targetPoint"/>
                    </mxGeometry>
                </mxCell>
                <mxCell id="14" value="$$t_4$$" style="whiteSpace=wrap;html=1;aspect=fixed;strokeColor=#6D8FBF;fillColor=#DAE8FC;fontColor=#6D8FBF;" parent="1" vertex="1">
                    <mxGeometry x="420" y="220" width="40" height="40" as="geometry"/>
                </mxCell>
                <mxCell id="15" value="8" style="whiteSpace=wrap;html=1;aspect=fixed;strokeColor=#6D8FBF;fillColor=#DAE8FC;fontColor=#6D8FBF;" parent="1" vertex="1">
                    <mxGeometry x="420" y="300" width="40" height="40" as="geometry"/>
                </mxCell>
                <mxCell id="16" value="" style="endArrow=classic;html=1;exitX=0.5;exitY=1;exitDx=0;exitDy=0;entryX=0.5;entryY=0;entryDx=0;entryDy=0;strokeColor=#6D8FBF;" parent="1" edge="1">
                    <mxGeometry width="50" height="50" relative="1" as="geometry">
                        <mxPoint x="440" y="260" as="sourcePoint"/>
                        <mxPoint x="440" y="300" as="targetPoint"/>
                    </mxGeometry>
                </mxCell>
                <mxCell id="17" value="$$t_5$$" style="whiteSpace=wrap;html=1;aspect=fixed;strokeColor=#6D8FBF;fillColor=#DAE8FC;fontColor=#6D8FBF;" parent="1" vertex="1">
                    <mxGeometry x="500" y="220" width="40" height="40" as="geometry"/>
                </mxCell>
                <mxCell id="18" value="10" style="whiteSpace=wrap;html=1;aspect=fixed;strokeColor=#6D8FBF;fillColor=#DAE8FC;fontColor=#6D8FBF;" parent="1" vertex="1">
                    <mxGeometry x="500" y="300" width="40" height="40" as="geometry"/>
                </mxCell>
                <mxCell id="19" value="" style="endArrow=classic;html=1;exitX=0.5;exitY=1;exitDx=0;exitDy=0;entryX=0.5;entryY=0;entryDx=0;entryDy=0;strokeColor=#6D8FBF;" parent="1" edge="1">
                    <mxGeometry width="50" height="50" relative="1" as="geometry">
                        <mxPoint x="520" y="260" as="sourcePoint"/>
                        <mxPoint x="520" y="300" as="targetPoint"/>
                    </mxGeometry>
                </mxCell>
                <mxCell id="23" value="" style="edgeStyle=none;html=1;" parent="1" source="21" target="22" edge="1">
                    <mxGeometry relative="1" as="geometry"/>
                </mxCell>
                <mxCell id="21" value="$$t_6$$" style="whiteSpace=wrap;html=1;aspect=fixed;strokeColor=#6D8FBF;fillColor=#DAE8FC;fontColor=#6D8FBF;" parent="1" vertex="1">
                    <mxGeometry x="200" y="40" width="40" height="40" as="geometry"/>
                </mxCell>
                <mxCell id="22" value="$$vals_6$$" style="ellipse;whiteSpace=wrap;html=1;fillColor=#DAE8FC;strokeColor=#6D8FBF;fontColor=#6D8FBF;" parent="1" vertex="1">
                    <mxGeometry x="200" y="110" width="40" height="40" as="geometry"/>
                </mxCell>
                <mxCell id="24" value="&lt;font style=&quot;font-size: 20px;&quot;&gt;New data where $$ t_3 &amp;lt; t_6 &amp;lt; t_4$$&lt;/font&gt;" style="text;html=1;strokeColor=none;fillColor=none;align=center;verticalAlign=middle;whiteSpace=wrap;rounded=0;" parent="1" vertex="1">
                    <mxGeometry x="23" y="40" width="170" height="90" as="geometry"/>
                </mxCell>
                <mxCell id="29" value="" style="endArrow=classic;html=1;fontSize=20;entryX=0.667;entryY=0;entryDx=0;entryDy=0;entryPerimeter=0;strokeWidth=4;" parent="1" target="20" edge="1">
                    <mxGeometry width="50" height="50" relative="1" as="geometry">
                        <mxPoint x="255" y="80" as="sourcePoint"/>
                        <mxPoint x="400" y="80" as="targetPoint"/>
                        <Array as="points">
                            <mxPoint x="400" y="80"/>
                        </Array>
                    </mxGeometry>
                </mxCell>
                <mxCell id="30" value="&lt;font style=&quot;font-size: 16px;&quot;&gt;Determines insertion index :&lt;br&gt;8&lt;br&gt;&lt;/font&gt;" style="text;html=1;strokeColor=none;fillColor=none;align=center;verticalAlign=middle;whiteSpace=wrap;rounded=0;" parent="1" vertex="1">
                    <mxGeometry x="400" y="85" width="127" height="90" as="geometry"/>
                </mxCell>
                <mxCell id="31" value="&lt;font style=&quot;font-size: 13px;&quot;&gt;$$vals_0$$&lt;/font&gt;" style="text;html=1;strokeColor=none;fillColor=none;align=center;verticalAlign=middle;whiteSpace=wrap;rounded=0;fontSize=16;" parent="1" vertex="1">
                    <mxGeometry x="83.5" y="470" width="31" height="20" as="geometry"/>
                </mxCell>
                <mxCell id="32" value="&lt;font style=&quot;font-size: 13px;&quot;&gt;$$vals_0$$&lt;/font&gt;" style="text;html=1;strokeColor=none;fillColor=none;align=center;verticalAlign=middle;whiteSpace=wrap;rounded=0;fontSize=16;" parent="1" vertex="1">
                    <mxGeometry x="123.5" y="470" width="31" height="20" as="geometry"/>
                </mxCell>
                <mxCell id="33" value="&lt;font style=&quot;font-size: 13px;&quot;&gt;$$vals_1$$&lt;/font&gt;" style="text;html=1;strokeColor=none;fillColor=none;align=center;verticalAlign=middle;whiteSpace=wrap;rounded=0;fontSize=16;" parent="1" vertex="1">
                    <mxGeometry x="163.5" y="470" width="31" height="20" as="geometry"/>
                </mxCell>
                <mxCell id="34" value="&lt;span style=&quot;font-size: 13px;&quot;&gt;$$vals_1$$&lt;/span&gt;" style="text;html=1;strokeColor=none;fillColor=none;align=center;verticalAlign=middle;whiteSpace=wrap;rounded=0;fontSize=16;" parent="1" vertex="1">
                    <mxGeometry x="204.5" y="470" width="31" height="20" as="geometry"/>
                </mxCell>
                <mxCell id="35" value="&lt;span style=&quot;font-size: 13px;&quot;&gt;$$vals_2$$&lt;/span&gt;" style="text;html=1;strokeColor=none;fillColor=none;align=center;verticalAlign=middle;whiteSpace=wrap;rounded=0;fontSize=16;" parent="1" vertex="1">
                    <mxGeometry x="243.5" y="470" width="31" height="20" as="geometry"/>
                </mxCell>
                <mxCell id="36" value="&lt;span style=&quot;font-size: 13px;&quot;&gt;$$vals_2$$&lt;/span&gt;" style="text;html=1;strokeColor=none;fillColor=none;align=center;verticalAlign=middle;whiteSpace=wrap;rounded=0;fontSize=16;" parent="1" vertex="1">
                    <mxGeometry x="283.5" y="470" width="31" height="20" as="geometry"/>
                </mxCell>
                <mxCell id="37" value="&lt;span style=&quot;font-size: 13px;&quot;&gt;$$vals_3$$&lt;/span&gt;" style="text;html=1;strokeColor=none;fillColor=none;align=center;verticalAlign=middle;whiteSpace=wrap;rounded=0;fontSize=16;" parent="1" vertex="1">
                    <mxGeometry x="323.5" y="470" width="31" height="20" as="geometry"/>
                </mxCell>
                <mxCell id="38" value="&lt;span style=&quot;font-size: 13px;&quot;&gt;$$vals_3$$&lt;/span&gt;" style="text;html=1;strokeColor=none;fillColor=none;align=center;verticalAlign=middle;whiteSpace=wrap;rounded=0;fontSize=16;" parent="1" vertex="1">
                    <mxGeometry x="363.5" y="470" width="31" height="20" as="geometry"/>
                </mxCell>
                <mxCell id="39" value="&lt;span style=&quot;font-size: 13px;&quot;&gt;$$vals_4$$&lt;/span&gt;" style="text;html=1;strokeColor=none;fillColor=none;align=center;verticalAlign=middle;whiteSpace=wrap;rounded=0;fontSize=16;" parent="1" vertex="1">
                    <mxGeometry x="483.5" y="470" width="31" height="20" as="geometry"/>
                </mxCell>
                <mxCell id="40" value="&lt;span style=&quot;font-size: 13px;&quot;&gt;$$vals_4$$&lt;/span&gt;" style="text;html=1;strokeColor=none;fillColor=none;align=center;verticalAlign=middle;whiteSpace=wrap;rounded=0;fontSize=16;" parent="1" vertex="1">
                    <mxGeometry x="523.5" y="470" width="31" height="20" as="geometry"/>
                </mxCell>
                <mxCell id="41" value="&lt;span style=&quot;font-size: 13px;&quot;&gt;$$vals_5$$&lt;/span&gt;" style="text;html=1;strokeColor=none;fillColor=none;align=center;verticalAlign=middle;whiteSpace=wrap;rounded=0;fontSize=16;" parent="1" vertex="1">
                    <mxGeometry x="563.5" y="470" width="31" height="20" as="geometry"/>
                </mxCell>
                <mxCell id="42" value="&lt;span style=&quot;font-size: 13px;&quot;&gt;$$vals_5$$&lt;/span&gt;" style="text;html=1;strokeColor=none;fillColor=none;align=center;verticalAlign=middle;whiteSpace=wrap;rounded=0;fontSize=16;" parent="1" vertex="1">
                    <mxGeometry x="603.5" y="470" width="31" height="20" as="geometry"/>
                </mxCell>
                <mxCell id="47" value="8" style="rounded=0;whiteSpace=wrap;html=1;verticalAlign=bottom;align=left;fillColor=#FFCCCC;fontColor=#FF0000;strokeColor=#FF0000;" parent="1" vertex="1">
                    <mxGeometry x="399" y="460" width="40" height="40" as="geometry"/>
                </mxCell>
                <mxCell id="48" value="9" style="rounded=0;whiteSpace=wrap;html=1;verticalAlign=bottom;align=left;fillColor=#FFCCCC;fontColor=#FF0000;strokeColor=#FF0000;" parent="1" vertex="1">
                    <mxGeometry x="439" y="460" width="40" height="40" as="geometry"/>
                </mxCell>
                <mxCell id="49" value="&lt;span style=&quot;font-size: 13px;&quot;&gt;$$vals_6$$&lt;/span&gt;" style="text;html=1;strokeColor=none;fillColor=none;align=center;verticalAlign=middle;whiteSpace=wrap;rounded=0;fontSize=16;" parent="1" vertex="1">
                    <mxGeometry x="401.25" y="470" width="35.5" height="20" as="geometry"/>
                </mxCell>
                <mxCell id="50" value="&lt;span style=&quot;font-size: 13px;&quot;&gt;$$vals_6$$&lt;/span&gt;" style="text;html=1;strokeColor=none;fillColor=none;align=center;verticalAlign=middle;whiteSpace=wrap;rounded=0;fontSize=16;" parent="1" vertex="1">
                    <mxGeometry x="443.5" y="470" width="31" height="20" as="geometry"/>
                </mxCell>
                <mxCell id="51" value="" style="endArrow=none;dashed=1;html=1;rounded=0;strokeColor=#000000;" parent="1" edge="1">
                    <mxGeometry width="50" height="50" relative="1" as="geometry">
                        <mxPoint x="399" y="540" as="sourcePoint"/>
                        <mxPoint x="399" y="420" as="targetPoint"/>
                    </mxGeometry>
                </mxCell>
                <mxCell id="52" value="$$t_6$$" style="text;html=1;strokeColor=none;fillColor=none;align=center;verticalAlign=middle;whiteSpace=wrap;rounded=0;fontColor=#FF0000;" parent="1" vertex="1">
                    <mxGeometry x="420" y="430" width="40" height="20" as="geometry"/>
                </mxCell>
                <mxCell id="53" value="&lt;font style=&quot;font-size: 16px;&quot;&gt;Shifts existing data and inserts new ones&lt;br&gt;&lt;/font&gt;" style="text;html=1;strokeColor=none;fillColor=none;align=center;verticalAlign=middle;whiteSpace=wrap;rounded=0;" parent="1" vertex="1">
                    <mxGeometry x="337.5" y="370" width="297" height="40" as="geometry"/>
                </mxCell>
                <mxCell id="54" value="" style="endArrow=classic;html=1;strokeWidth=4;fontSize=13;fontColor=#FF0000;exitX=0.5;exitY=1;exitDx=0;exitDy=0;" parent="1" source="20" edge="1">
                    <mxGeometry width="50" height="50" relative="1" as="geometry">
                        <mxPoint x="240" y="330" as="sourcePoint"/>
                        <mxPoint x="320" y="420" as="targetPoint"/>
                    </mxGeometry>
                </mxCell>
                <mxCell id="55" value="" style="endArrow=classic;html=1;strokeWidth=4;fontSize=13;fontColor=#FF0000;exitX=0.5;exitY=1;exitDx=0;exitDy=0;" parent="1" edge="1">
                    <mxGeometry width="50" height="50" relative="1" as="geometry">
                        <mxPoint x="319" y="548" as="sourcePoint"/>
                        <mxPoint x="319" y="608" as="targetPoint"/>
                    </mxGeometry>
                </mxCell>
                <mxCell id="56" value="&lt;font style=&quot;font-size: 16px;&quot;&gt;Updates indexes map&lt;br&gt;&lt;/font&gt;" style="text;html=1;strokeColor=none;fillColor=none;align=center;verticalAlign=middle;whiteSpace=wrap;rounded=0;" parent="1" vertex="1">
                    <mxGeometry x="336.5" y="558" width="297" height="40" as="geometry"/>
                </mxCell>
                <mxCell id="57" value="" style="rounded=0;whiteSpace=wrap;html=1;labelBackgroundColor=none;" parent="1" vertex="1">
                    <mxGeometry x="79" y="610" width="561" height="160" as="geometry"/>
                </mxCell>
                <mxCell id="58" value="$$t_0$$" style="whiteSpace=wrap;html=1;aspect=fixed;strokeColor=#6D8FBF;fillColor=#DAE8FC;fontColor=#6D8FBF;" parent="1" vertex="1">
                    <mxGeometry x="99" y="630" width="40" height="40" as="geometry"/>
                </mxCell>
                <mxCell id="59" value="0" style="whiteSpace=wrap;html=1;aspect=fixed;strokeColor=#6D8FBF;fillColor=#DAE8FC;fontColor=#6D8FBF;" parent="1" vertex="1">
                    <mxGeometry x="99" y="710" width="40" height="40" as="geometry"/>
                </mxCell>
                <mxCell id="60" value="" style="endArrow=classic;html=1;exitX=0.5;exitY=1;exitDx=0;exitDy=0;entryX=0.5;entryY=0;entryDx=0;entryDy=0;strokeColor=#6D8FBF;" parent="1" source="58" target="59" edge="1">
                    <mxGeometry width="50" height="50" relative="1" as="geometry">
                        <mxPoint x="409" y="700" as="sourcePoint"/>
                        <mxPoint x="459" y="650" as="targetPoint"/>
                    </mxGeometry>
                </mxCell>
                <mxCell id="61" value="$$t_1$$" style="whiteSpace=wrap;html=1;aspect=fixed;strokeColor=#6D8FBF;fillColor=#DAE8FC;fontColor=#6D8FBF;" parent="1" vertex="1">
                    <mxGeometry x="179" y="630" width="40" height="40" as="geometry"/>
                </mxCell>
                <mxCell id="62" value="2" style="whiteSpace=wrap;html=1;aspect=fixed;strokeColor=#6D8FBF;fillColor=#DAE8FC;fontColor=#6D8FBF;" parent="1" vertex="1">
                    <mxGeometry x="179" y="710" width="40" height="40" as="geometry"/>
                </mxCell>
                <mxCell id="63" value="" style="endArrow=classic;html=1;exitX=0.5;exitY=1;exitDx=0;exitDy=0;entryX=0.5;entryY=0;entryDx=0;entryDy=0;strokeColor=#6D8FBF;" parent="1" edge="1">
                    <mxGeometry width="50" height="50" relative="1" as="geometry">
                        <mxPoint x="199" y="670" as="sourcePoint"/>
                        <mxPoint x="199" y="710" as="targetPoint"/>
                    </mxGeometry>
                </mxCell>
                <mxCell id="64" value="$$t_2$$" style="whiteSpace=wrap;html=1;aspect=fixed;strokeColor=#6D8FBF;fillColor=#DAE8FC;fontColor=#6D8FBF;" parent="1" vertex="1">
                    <mxGeometry x="259" y="630" width="40" height="40" as="geometry"/>
                </mxCell>
                <mxCell id="65" value="4" style="whiteSpace=wrap;html=1;aspect=fixed;strokeColor=#6D8FBF;fillColor=#DAE8FC;fontColor=#6D8FBF;" parent="1" vertex="1">
                    <mxGeometry x="259" y="710" width="40" height="40" as="geometry"/>
                </mxCell>
                <mxCell id="66" value="" style="endArrow=classic;html=1;exitX=0.5;exitY=1;exitDx=0;exitDy=0;entryX=0.5;entryY=0;entryDx=0;entryDy=0;strokeColor=#6D8FBF;" parent="1" edge="1">
                    <mxGeometry width="50" height="50" relative="1" as="geometry">
                        <mxPoint x="279" y="670" as="sourcePoint"/>
                        <mxPoint x="279" y="710" as="targetPoint"/>
                    </mxGeometry>
                </mxCell>
                <mxCell id="67" value="$$t_3$$" style="whiteSpace=wrap;html=1;aspect=fixed;strokeColor=#6D8FBF;fillColor=#DAE8FC;fontColor=#6D8FBF;" parent="1" vertex="1">
                    <mxGeometry x="339" y="630" width="40" height="40" as="geometry"/>
                </mxCell>
                <mxCell id="68" value="6" style="whiteSpace=wrap;html=1;aspect=fixed;strokeColor=#6D8FBF;fillColor=#DAE8FC;fontColor=#6D8FBF;" parent="1" vertex="1">
                    <mxGeometry x="339" y="710" width="40" height="40" as="geometry"/>
                </mxCell>
                <mxCell id="69" value="" style="endArrow=classic;html=1;exitX=0.5;exitY=1;exitDx=0;exitDy=0;entryX=0.5;entryY=0;entryDx=0;entryDy=0;strokeColor=#6D8FBF;" parent="1" edge="1">
                    <mxGeometry width="50" height="50" relative="1" as="geometry">
                        <mxPoint x="359" y="670" as="sourcePoint"/>
                        <mxPoint x="359" y="710" as="targetPoint"/>
                    </mxGeometry>
                </mxCell>
                <mxCell id="70" value="$$t_4$$" style="whiteSpace=wrap;html=1;aspect=fixed;strokeColor=#6D8FBF;fillColor=#DAE8FC;fontColor=#6D8FBF;" parent="1" vertex="1">
                    <mxGeometry x="490" y="630" width="40" height="40" as="geometry"/>
                </mxCell>
                <mxCell id="71" value="10" style="whiteSpace=wrap;html=1;aspect=fixed;strokeColor=#6D8FBF;fillColor=#DAE8FC;fontColor=#6D8FBF;" parent="1" vertex="1">
                    <mxGeometry x="490" y="710" width="40" height="40" as="geometry"/>
                </mxCell>
                <mxCell id="72" value="" style="endArrow=classic;html=1;exitX=0.5;exitY=1;exitDx=0;exitDy=0;entryX=0.5;entryY=0;entryDx=0;entryDy=0;strokeColor=#6D8FBF;" parent="1" edge="1">
                    <mxGeometry width="50" height="50" relative="1" as="geometry">
                        <mxPoint x="510" y="670" as="sourcePoint"/>
                        <mxPoint x="510" y="710" as="targetPoint"/>
                    </mxGeometry>
                </mxCell>
                <mxCell id="73" value="$$t_5$$" style="whiteSpace=wrap;html=1;aspect=fixed;strokeColor=#6D8FBF;fillColor=#DAE8FC;fontColor=#6D8FBF;" parent="1" vertex="1">
                    <mxGeometry x="570" y="630" width="40" height="40" as="geometry"/>
                </mxCell>
                <mxCell id="74" value="12" style="whiteSpace=wrap;html=1;aspect=fixed;strokeColor=#6D8FBF;fillColor=#DAE8FC;fontColor=#6D8FBF;" parent="1" vertex="1">
                    <mxGeometry x="570" y="710" width="40" height="40" as="geometry"/>
                </mxCell>
                <mxCell id="75" value="" style="endArrow=classic;html=1;exitX=0.5;exitY=1;exitDx=0;exitDy=0;entryX=0.5;entryY=0;entryDx=0;entryDy=0;strokeColor=#6D8FBF;" parent="1" edge="1">
                    <mxGeometry width="50" height="50" relative="1" as="geometry">
                        <mxPoint x="590" y="670" as="sourcePoint"/>
                        <mxPoint x="590" y="710" as="targetPoint"/>
                    </mxGeometry>
                </mxCell>
                <mxCell id="76" value="$$t_6$$" style="whiteSpace=wrap;html=1;aspect=fixed;strokeColor=#FF0000;fillColor=#FFCCCC;fontColor=#000000;" parent="1" vertex="1">
                    <mxGeometry x="413.5" y="630" width="40" height="40" as="geometry"/>
                </mxCell>
                <mxCell id="77" value="" style="endArrow=classic;html=1;exitX=0.5;exitY=1;exitDx=0;exitDy=0;entryX=0.5;entryY=0;entryDx=0;entryDy=0;strokeColor=#FF0000;" parent="1" edge="1">
                    <mxGeometry width="50" height="50" relative="1" as="geometry">
                        <mxPoint x="433.5" y="670" as="sourcePoint"/>
                        <mxPoint x="433.5" y="710" as="targetPoint"/>
                    </mxGeometry>
                </mxCell>
                <mxCell id="78" value="8" style="whiteSpace=wrap;html=1;aspect=fixed;strokeColor=#FF0000;fillColor=#FFCCCC;fontColor=#000000;" parent="1" vertex="1">
                    <mxGeometry x="413.5" y="710" width="40" height="40" as="geometry"/>
                </mxCell>
            </root>
        </mxGraphModel>
    </diagram>
</mxfile>
